<?xml version="1.0" encoding="utf-8"?>
<!-- Generator: Adobe Illustrator 23.0.2, SVG Export Plug-In . SVG Version: 6.00 Build 0)  -->
<svg version="1.1" id="Layer_1" xmlns="http://www.w3.org/2000/svg" xmlns:xlink="http://www.w3.org/1999/xlink" x="0px" y="0px"
	 viewBox="0 0 536 133" style="enable-background:new 0 0 536 133;" xml:space="preserve">
<style type="text/css">
	.st0{fill:#FFFFFF;}
</style>
<g>
	<path class="st0" d="M38.39,25.93c-4.11-11.86-0.8-20.81,8.67-23.42c8.14-2.23,16.78,3.11,18.34,11.34
		c2,10.54-4.05,17.2-16.96,18.7c0.84,4.39-0.71,8.17-2.97,11.66c-1.8,2.76-3.94,5.26-5.88,7.91c-5.66,7.71-6.77,16.5-5.3,25.73
		c1.07,6.71,6.58,20.26,10.44,26.53c1.5-4.82,4.36-8.5,8.12-11.36c3.66-2.78,7.51-5.29,11.51-8.1
		c-5.78-6.54-11.44-13.46-17.71-19.69c-2.05-2.03-5.74-2.29-9.17-3.53c0.57-2.87,2.51-5.76,4.41-8.73c2.75-4.28,5.31-8.7,7.91-13.08
		c0.36-0.62,0.41-1.41,0.66-2.1c0.3-0.89,0.66-1.76,1-2.65c0.97,0.55,2.41,0.84,2.83,1.68c1.59,3.16,3.26,6.38,4.18,9.79
		c2,7.43,2.64,15.28,6.39,22.15c2.27,4.18,4.71,8.26,7.18,12.31c0.43,0.7,1.47,0.99,2.48,1.19c-3.12-2.99-5.51-6.27-5.83-10.74
		c-0.33-4.52,1.1-8.37,4.43-11.37c5.27-4.77,13.06-4.45,18,0.68c5.66,5.89,4.92,13.29-2.58,21.66c4.31,1.84,8.36,3.67,12.5,5.27
		c3.25,1.26,6.63,2.22,9.93,3.34c4.92,1.66,6.84,6.62,3.96,11.03c-2.07,3.2-4.64,6.07-7.08,8.99c-0.7,0.81-1.8,1.26-3.08,2.12
		c0-2.32-0.08-4.04,0.01-5.74c0.23-4.05-1.52-6.92-5.29-7.87c-10.84-2.7-21.6-1.96-32.18,1.36c-2.6,0.81-5.09,2.29-7.37,3.87
		c-2.58,1.79-2.78,3.96-0.39,5.88c2.8,2.24,6.01,3.94,9.05,5.86c0.57,0.36,1.17,0.66,1.66,1.52c-0.82,0.07-1.66,0.28-2.47,0.19
		c-8.55-0.9-16.77-2.21-22.56-10.16c-1.79-2.45-5.23-3.65-7.96-5.38c-4.66-2.97-8.23-6.93-10.96-11.88
		c-5.4-9.82-8.45-20.25-8.47-31.59c-0.03-12.6,3.9-23.16,14.65-30.18C34.32,27.95,36.29,27.07,38.39,25.93"/>
	<path class="st0" d="M14.54,52.87c-1.62,17.55,2.28,32.78,13.37,46.81c-2.75,0-5.19,0.39-7.45-0.07
		c-5.6-1.18-11.13-2.64-16.08-5.79C1.13,91.73,1,88.32,1.5,85.24c1.74-10.69,5.08-20.86,10.72-30.1
		C12.71,54.34,13.58,53.79,14.54,52.87"/>
	<path class="st0" d="M47.75,121.9c0.41-2.36,1.52-2.91,3.64-2.08c6.52,2.54,13.11,4.83,19.59,7.45c1.79,0.72,2.95,0.5,4.35-0.68
		c4.46-3.82,9.69-5.95,15.42-6.41c2.32-0.19,4.81,0.37,7.1,1.06c3.95,1.2,7-0.29,9.64-3.02c4.51-4.64,15.02-5.98,19.94-2.42
		c0.35,0.24,0.64,0.54,1.15,0.98c-0.46,0.19-0.7,0.38-0.85,0.32c-5.24-2.12-10.05-0.32-14.7,1.95c-1.52,0.75-2.86,2.23-3.88,3.68
		c-1.4,2-2.83,3.75-5.34,4.03c-0.88,0.09-1.86,0.05-2.67-0.25c-6.52-2.37-15.49-3.38-20.63,2.34c-4.13,4.59-7.4,5.6-12.97,1.93
		c-5.55-3.65-12.21-5.5-18.38-8.16C48.7,122.41,48.24,122.14,47.75,121.9"/>
	<path class="st0" d="M65.12,110.67c2.39-3.08,9.24-5.29,14.29-4.46c7.09,1.19,12.93,5.03,18.5,9.42c0.17,0.14,0.21,0.46,0.64,1.48
		c-1.52-0.54-2.53-0.78-3.42-1.23c-7.27-3.73-14.83-6.36-23.04-6.36C69.81,109.52,67.52,110.26,65.12,110.67"/>
	<path class="st0" d="M157.57,73.17c2.15,0,3.89-0.44,5.21-1.35c1.29-0.91,2.31-2.03,3.02-3.39c0.69-1.36,1.16-2.83,1.39-4.38
		c0.24-1.58,0.35-3.01,0.35-4.36c0-1.31-0.11-2.74-0.35-4.32c-0.23-1.59-0.7-3.04-1.39-4.39c-0.71-1.36-1.73-2.5-3.02-3.39
		c-1.32-0.91-3.06-1.36-5.21-1.36c-2.16,0-3.89,0.46-5.21,1.36c-1.3,0.89-2.32,2.03-3.05,3.39c-0.73,1.35-1.22,2.8-1.44,4.39
		c-0.25,1.58-0.35,3-0.35,4.32c0,1.35,0.1,2.78,0.35,4.36c0.22,1.55,0.71,3.02,1.44,4.38c0.73,1.36,1.75,2.48,3.05,3.39
		C153.69,72.73,155.41,73.17,157.57,73.17 M145.59,45.79c0.99-2.55,2.24-4.47,3.76-5.84c1.53-1.37,3-2.36,4.46-3.02
		c1.71-0.73,3.46-1.19,5.26-1.36c3.62,0.12,6.83,1.01,9.62,2.71c1.21,0.73,2.4,1.66,3.54,2.8c1.13,1.15,2.16,2.59,3.06,4.3
		c0.91,1.71,1.64,3.76,2.19,6.1c0.56,2.34,0.84,5.09,0.84,8.22c0,3.17-0.31,5.89-0.92,8.24c-0.61,2.34-1.39,4.37-2.36,6.04
		c-0.96,1.72-2.07,3.12-3.32,4.22c-1.27,1.14-2.53,2.05-3.82,2.76c-3.02,1.63-6.46,2.47-10.31,2.53c-3.85-0.06-7.26-0.91-10.23-2.53
		c-1.28-0.71-2.55-1.62-3.76-2.76c-1.24-1.1-2.33-2.52-3.29-4.25c-0.95-1.71-1.74-3.76-2.33-6.1c-0.58-2.34-0.87-5.09-0.87-8.24
		V21.55h10.42v21.61L145.59,45.79z"/>
	<path class="st0" d="M218.98,53.83c-0.3-0.97-0.66-1.94-1.09-2.9c-0.43-0.96-1.05-1.83-1.79-2.63c-0.76-0.79-1.67-1.4-2.71-1.85
		c-1.06-0.46-2.27-0.67-3.68-0.67c-1.41,0-2.62,0.21-3.67,0.67c-1.05,0.45-1.94,1.06-2.72,1.85c-0.75,0.79-1.36,1.67-1.84,2.63
		c-0.46,0.96-0.82,1.92-1.04,2.9H218.98z M230,53.83c0.11,0.91,0.21,1.84,0.3,2.8c0.08,0.96,0.13,1.99,0.13,3.08v1.62h-30.6
		c0.1,1.04,0.26,2.07,0.43,3.12c0.17,1.05,0.47,2.1,0.87,3.13c0.64,1.56,1.64,2.96,2.97,4.16c1.35,1.19,3.21,1.8,5.6,1.8
		c2.4,0,4.26-0.61,5.6-1.8c1.35-1.21,2.34-2.6,2.98-4.16h11.36c-0.46,2.12-1.12,3.94-1.97,5.51c-0.83,1.57-1.77,2.92-2.8,4.08
		c-1.03,1.14-2.12,2.09-3.28,2.85c-1.16,0.75-2.31,1.38-3.4,1.85c-2.7,1.08-5.53,1.62-8.49,1.62c-3.9-0.06-7.37-0.91-10.42-2.53
		c-1.28-0.71-2.55-1.62-3.8-2.76c-1.25-1.1-2.36-2.5-3.31-4.19c-0.98-1.69-1.74-3.71-2.34-6.05c-0.56-2.36-0.86-5.1-0.86-8.23
		c0-3.15,0.3-5.88,0.86-8.22c0.59-2.38,1.36-4.39,2.34-6.12c0.95-1.71,2.06-3.15,3.31-4.29c1.25-1.15,2.52-2.08,3.8-2.81
		c3.05-1.68,6.51-2.59,10.42-2.71c3.21,0.12,6.22,0.8,9.02,2.08c1.16,0.55,2.34,1.26,3.54,2.14c1.19,0.86,2.3,1.94,3.31,3.23
		c1.03,1.31,1.93,2.85,2.73,4.61C229.08,49.41,229.65,51.49,230,53.83"/>
	<path class="st0" d="M260.35,54.81c0.81,0,1.94,0.03,3.36,0.07c1.42,0.02,2.95,0.14,4.59,0.35c1.63,0.22,3.28,0.58,4.94,1.07
		c1.67,0.53,3.17,1.26,4.52,2.22c1.34,0.98,2.44,2.2,3.28,3.71c0.83,1.5,1.27,3.39,1.27,5.61c0,3.51-0.75,6.27-2.24,8.36
		c-1.5,2.1-3.32,3.67-5.47,4.77c-2.15,1.07-4.48,1.77-6.94,2.06c-2.48,0.32-4.69,0.45-6.61,0.45c-0.35,0-1.11-0.01-2.28-0.03
		c-1.16-0.03-2.52-0.19-4.06-0.51c-1.54-0.29-3.18-0.78-4.89-1.45c-1.72-0.66-3.31-1.61-4.72-2.85c-1.44-1.22-2.61-2.81-3.54-4.79
		c-0.94-1.96-1.4-4.36-1.4-7.19h10.67c0,0.54,0.1,1.19,0.26,1.95c0.18,0.75,0.6,1.5,1.22,2.21c0.64,0.72,1.62,1.35,2.9,1.84
		c1.29,0.52,3.03,0.81,5.25,0.88c2.74,0.07,4.85-0.07,6.33-0.36c1.5-0.3,2.59-0.7,3.29-1.22c0.71-0.5,1.12-1.04,1.27-1.58
		c0.15-0.54,0.22-1.05,0.22-1.54c0-0.53-0.09-1.08-0.26-1.63c-0.18-0.54-0.62-1.03-1.35-1.48c-0.73-0.47-1.88-0.84-3.42-1.14
		c-1.55-0.29-3.68-0.48-6.42-0.54c-2.11-0.06-4.21-0.37-6.3-0.9c-2.1-0.56-3.99-1.38-5.68-2.49c-1.71-1.13-3.08-2.53-4.12-4.2
		c-1.06-1.7-1.58-3.67-1.58-5.97c0-2.55,0.53-4.77,1.58-6.66c1.04-1.9,2.43-3.44,4.15-4.65c1.72-1.2,3.69-2.11,5.89-2.71
		c2.22-0.61,4.55-0.91,7-0.91c1.28,0,3,0.15,5.17,0.44c2.15,0.32,4.27,1.01,6.34,2.1c2.07,1.08,3.84,2.67,5.33,4.77
		c1.49,2.11,2.2,4.98,2.15,8.6h-10.68c0-1.94-0.62-3.46-1.88-4.56c-1.26-1.12-3.48-1.66-6.7-1.66c-2.4,0-4.31,0.46-5.77,1.38
		c-1.46,0.94-2.19,2.22-2.19,3.86c0,1.56,0.7,2.66,2.11,3.32C256.32,54.5,258.13,54.81,260.35,54.81"/>
	<path class="st0" d="M302.95,47.5v20.16c0.16,0.73,0.49,1.38,0.94,1.98c0.42,0.49,0.99,0.96,1.72,1.36
		c0.73,0.44,1.67,0.65,2.83,0.65h6.65v10.95h-10.66c-2.27-0.26-4.32-0.92-6.13-2c-1.51-0.91-2.9-2.25-4.15-4.02
		c-1.26-1.8-1.89-4.25-1.89-7.37V24.45h10.69v12.29h10.04V47.5H302.95z"/>
	<path class="st0" d="M348.08,78.26v2.5h-5.6c-7.99,0-12.83-5.07-12.83-13.48V38.85h-9.88v-2.33h9.88V23.44h2.53v13.09h15.54v2.33
		h-15.54v28.33c0,7,3.83,11.07,10.5,11.07H348.08z"/>
	<path class="st0" d="M356.25,62.15v-25.7h2.52v25.41c0,10.59,5.96,17.18,15.52,17.18c9.56,0,15.51-6.6,15.51-17.18V36.45h2.53v25.7
		c0,11.84-6.98,19.44-18.03,19.44C363.24,81.6,356.25,73.99,356.25,62.15"/>
	<path class="st0" d="M428.55,78.26v2.5h-5.61c-7.99,0-12.84-5.07-12.84-13.48V38.85h-9.87v-2.33h9.87V23.44h2.54v13.09h15.53v2.33
		h-15.53v28.33c0,7,3.82,11.07,10.49,11.07H428.55z"/>
	<path class="st0" d="M475,58.59c0-11.7-8.37-20.44-19.72-20.44c-11.31,0-19.7,8.68-19.7,20.44c0,11.71,8.46,20.45,19.7,20.45
		C466.62,79.04,475,70.3,475,58.59 M432.99,58.59c0-13.24,9.59-23,22.29-23c12.79,0,22.32,9.86,22.32,23
		c0,13.17-9.53,23.01-22.32,23.01C442.58,81.6,432.99,71.76,432.99,58.59"/>
	<path class="st0" d="M510.74,36.33v2.52h-3.87c-8.94,0-14.91,7.17-14.91,16.96v24.93h-2.55V36.45h2l0.41,10.02
		c2.68-6.2,8-10.14,15.22-10.14H510.74z"/>
	<polygon class="st0" points="521.37,28.61 521.37,36.45 520.27,36.45 520.27,28.61 517.45,28.61 517.45,27.61 524.17,27.61 
		524.17,28.61 	"/>
	<polygon class="st0" points="530.55,36.45 529.42,36.45 526.98,29.06 526.98,36.45 525.96,36.45 525.96,27.63 527.47,27.63 
		530,35.3 532.49,27.63 534,27.63 534,36.45 532.95,36.45 532.95,29.06 	"/>
	<g>
		<path class="st0" d="M142.64,116.81v-14.45h-4.37v-1.94h10.51v1.94h-4.37v14.45H142.64z"/>
		<path class="st0" d="M151.7,116.81v-16.39h1.65v5.89c0.75-1.1,1.71-1.64,2.86-1.64c0.71,0,1.33,0.17,1.85,0.52
			c0.53,0.35,0.9,0.83,1.12,1.44c0.23,0.61,0.35,1.5,0.35,2.66v7.52h-1.65v-7.51c0-1-0.18-1.74-0.53-2.19
			c-0.35-0.46-0.84-0.69-1.49-0.69c-0.48,0-0.93,0.16-1.35,0.46c-0.42,0.31-0.72,0.73-0.9,1.26c-0.18,0.53-0.27,1.26-0.27,2.19v6.49
			H151.7z"/>
		<path class="st0" d="M169.98,112.97l1.65,0.27c-0.26,1.21-0.76,2.16-1.48,2.83c-0.72,0.67-1.65,1.01-2.77,1.01
			c-1.42,0-2.53-0.53-3.36-1.6c-0.82-1.07-1.24-2.57-1.24-4.5c0-2,0.41-3.55,1.26-4.65c0.83-1.1,1.92-1.66,3.25-1.66
			c1.29,0,2.35,0.54,3.17,1.62c0.82,1.08,1.23,2.6,1.23,4.55c0,0.12,0,0.3-0.01,0.54h-7.2c0.06,1.31,0.36,2.31,0.9,3.01
			c0.55,0.7,1.23,1.04,2.04,1.04c0.6,0,1.12-0.19,1.55-0.59C169.38,114.45,169.73,113.83,169.98,112.97z M164.51,109.73H170
			c-0.08-1-0.29-1.75-0.63-2.25c-0.53-0.78-1.22-1.16-2.06-1.16c-0.77,0-1.41,0.31-1.93,0.93
			C164.85,107.87,164.56,108.69,164.51,109.73z"/>
		<path class="st0" d="M181.51,116.81v-16.39h1.77v14.45h6.56v1.94H181.51z"/>
		<path class="st0" d="M199.38,115.31c-0.61,0.65-1.2,1.1-1.77,1.37c-0.57,0.27-1.18,0.4-1.83,0.4c-1.07,0-1.9-0.32-2.48-0.96
			c-0.58-0.64-0.86-1.45-0.86-2.45c0-0.58,0.11-1.11,0.33-1.6c0.22-0.48,0.51-0.87,0.86-1.16c0.35-0.29,0.75-0.51,1.19-0.66
			c0.33-0.1,0.82-0.21,1.48-0.3c1.34-0.19,2.33-0.43,2.96-0.69c0.01-0.27,0.01-0.45,0.01-0.52c0-0.82-0.15-1.39-0.47-1.72
			c-0.42-0.45-1.06-0.68-1.89-0.68c-0.78,0-1.35,0.17-1.73,0.5c-0.37,0.33-0.65,0.92-0.83,1.76l-1.65-0.27
			c0.14-0.84,0.39-1.52,0.73-2.04c0.34-0.52,0.82-0.92,1.46-1.2c0.63-0.28,1.37-0.42,2.21-0.42c0.83,0,1.51,0.12,2.03,0.36
			c0.52,0.24,0.9,0.54,1.15,0.9c0.24,0.36,0.41,0.82,0.51,1.37c0.05,0.34,0.08,0.96,0.08,1.86v2.68c0,1.87,0.03,3.05,0.1,3.55
			c0.07,0.49,0.2,0.97,0.4,1.42h-1.69C199.53,116.38,199.43,115.88,199.38,115.31z M199.26,110.84c-0.61,0.3-1.53,0.55-2.74,0.76
			c-0.69,0.12-1.18,0.25-1.46,0.4c-0.29,0.15-0.51,0.37-0.67,0.66c-0.15,0.29-0.23,0.61-0.23,0.96c0,0.54,0.17,0.99,0.51,1.35
			c0.34,0.36,0.83,0.54,1.49,0.54c0.64,0,1.22-0.17,1.72-0.51c0.5-0.34,0.87-0.8,1.11-1.4c0.18-0.46,0.27-1.13,0.27-2.02
			L199.26,110.84z"/>
		<path class="st0" d="M204.59,116.81v-11.87h1.5v1.81c0.37-0.85,0.71-1.4,1.03-1.67c0.32-0.27,0.66-0.4,1.04-0.4
			c0.55,0,1.1,0.22,1.66,0.65l-0.58,1.86c-0.39-0.28-0.79-0.43-1.18-0.43c-0.35,0-0.66,0.13-0.94,0.4c-0.28,0.26-0.48,0.63-0.6,1.1
			c-0.18,0.72-0.27,1.5-0.27,2.34v6.21H204.59z"/>
		<path class="st0" d="M211.8,117.79l1.65,0.27c0.06,0.61,0.24,1.05,0.54,1.33c0.4,0.38,0.95,0.56,1.64,0.56
			c0.74,0,1.31-0.19,1.72-0.56c0.4-0.37,0.68-0.89,0.82-1.56c0.08-0.41,0.12-1.27,0.12-2.58c-0.72,1.03-1.6,1.55-2.67,1.55
			c-1.32,0-2.35-0.59-3.08-1.77c-0.72-1.18-1.08-2.59-1.08-4.24c0-1.13,0.16-2.18,0.5-3.14c0.33-0.96,0.82-1.7,1.44-2.22
			c0.63-0.52,1.38-0.78,2.23-0.78c1.13,0,2.07,0.57,2.81,1.72v-1.45h1.5v10.26c0,1.85-0.15,3.16-0.46,3.93
			c-0.3,0.77-0.79,1.38-1.44,1.83c-0.66,0.45-1.47,0.67-2.44,0.67c-1.15,0-2.07-0.32-2.78-0.96
			C212.12,120.03,211.77,119.07,211.8,117.79z M213.15,110.66c0,1.56,0.25,2.69,0.75,3.4c0.51,0.72,1.14,1.07,1.89,1.07
			c0.75,0,1.38-0.35,1.89-1.07c0.51-0.71,0.77-1.83,0.77-3.34c0-1.45-0.26-2.54-0.79-3.28c-0.53-0.74-1.16-1.11-1.89-1.11
			c-0.72,0-1.35,0.36-1.86,1.09C213.39,108.15,213.15,109.23,213.15,110.66z"/>
		<path class="st0" d="M230.38,112.97l1.66,0.27c-0.27,1.21-0.76,2.16-1.48,2.83c-0.72,0.67-1.65,1.01-2.76,1.01
			c-1.42,0-2.54-0.53-3.37-1.6c-0.83-1.07-1.24-2.57-1.24-4.5c0-2,0.42-3.55,1.26-4.65c0.83-1.1,1.92-1.66,3.25-1.66
			c1.29,0,2.35,0.54,3.17,1.62c0.82,1.08,1.23,2.6,1.23,4.55c0,0.12,0,0.3-0.01,0.54h-7.2c0.06,1.31,0.36,2.31,0.91,3.01
			c0.54,0.7,1.22,1.04,2.03,1.04c0.6,0,1.12-0.19,1.55-0.59C229.79,114.45,230.13,113.83,230.38,112.97z M224.92,109.73h5.49
			c-0.08-1-0.28-1.75-0.63-2.25c-0.53-0.78-1.22-1.16-2.07-1.16c-0.76,0-1.41,0.31-1.93,0.93
			C225.26,107.87,224.97,108.69,224.92,109.73z"/>
		<path class="st0" d="M234.73,113.27l1.61-0.32c0.09,0.8,0.34,1.42,0.75,1.84c0.41,0.43,0.98,0.64,1.71,0.64
			c0.74,0,1.29-0.19,1.65-0.57c0.36-0.38,0.54-0.82,0.54-1.33c0-0.46-0.15-0.82-0.47-1.08c-0.22-0.18-0.77-0.41-1.64-0.68
			c-1.18-0.37-2-0.69-2.47-0.97c-0.46-0.27-0.81-0.65-1.05-1.13c-0.24-0.48-0.36-1.01-0.36-1.59c0-0.53,0.1-1.02,0.3-1.47
			c0.19-0.45,0.46-0.83,0.8-1.12c0.25-0.23,0.59-0.43,1.04-0.59c0.43-0.16,0.9-0.24,1.4-0.24c0.75,0,1.41,0.14,1.98,0.4
			c0.57,0.27,0.99,0.63,1.26,1.09c0.27,0.46,0.46,1.07,0.56,1.84l-1.61,0.27c-0.07-0.62-0.28-1.1-0.62-1.45
			c-0.35-0.35-0.83-0.52-1.46-0.52c-0.74,0-1.27,0.15-1.58,0.46c-0.32,0.31-0.48,0.67-0.48,1.08c0,0.26,0.07,0.5,0.2,0.71
			c0.13,0.22,0.34,0.4,0.61,0.54c0.16,0.08,0.64,0.25,1.43,0.52c1.14,0.38,1.94,0.69,2.4,0.93c0.45,0.24,0.81,0.59,1.07,1.05
			c0.26,0.46,0.39,1.03,0.39,1.72c0,0.67-0.15,1.3-0.47,1.89c-0.32,0.59-0.77,1.05-1.36,1.37c-0.59,0.32-1.27,0.49-2.02,0.49
			c-1.24,0-2.19-0.32-2.84-0.96C235.32,115.48,234.91,114.53,234.73,113.27z"/>
		<path class="st0" d="M249.46,115l0.23,1.78c-0.46,0.12-0.87,0.18-1.23,0.18c-0.59,0-1.05-0.12-1.38-0.35
			c-0.33-0.23-0.56-0.53-0.69-0.91c-0.13-0.37-0.2-1.17-0.2-2.37v-6.82H245v-1.57h1.19v-2.94l1.65-1.21v4.15h1.61v1.57h-1.61v6.93
			c0,0.57,0.03,0.94,0.08,1.11c0.06,0.16,0.15,0.29,0.27,0.39c0.13,0.1,0.32,0.14,0.55,0.14C248.93,115.08,249.16,115.05,249.46,115
			z"/>
		<path class="st0" d="M262.4,116.81v-14.45h-4.37v-1.94h10.51v1.94h-4.37v14.45H262.4z"/>
		<path class="st0" d="M277.72,116.81v-1.75c-0.74,1.35-1.75,2.02-3.03,2.02c-0.56,0-1.09-0.13-1.58-0.4
			c-0.49-0.27-0.85-0.61-1.08-1.01c-0.24-0.41-0.4-0.9-0.5-1.49c-0.07-0.39-0.11-1.02-0.11-1.88v-7.35h1.65v6.58
			c0,1.05,0.04,1.76,0.1,2.12c0.1,0.53,0.32,0.94,0.65,1.25c0.33,0.3,0.73,0.45,1.22,0.45c0.48,0,0.94-0.15,1.36-0.46
			c0.42-0.31,0.72-0.73,0.9-1.26c0.17-0.53,0.26-1.3,0.26-2.32v-6.35h1.65v11.87H277.72z"/>
		<path class="st0" d="M286.61,115l0.23,1.78c-0.46,0.12-0.87,0.18-1.23,0.18c-0.59,0-1.05-0.12-1.37-0.35
			c-0.33-0.23-0.56-0.53-0.69-0.91c-0.13-0.37-0.2-1.17-0.2-2.37v-6.82h-1.19v-1.57h1.19v-2.94l1.65-1.21v4.15h1.61v1.57H285v6.93
			c0,0.57,0.03,0.94,0.08,1.11c0.06,0.16,0.15,0.29,0.28,0.39c0.13,0.1,0.31,0.14,0.55,0.14C286.09,115.08,286.32,115.05,286.61,115
			z"/>
		<path class="st0" d="M288.92,110.87c0-2.2,0.5-3.83,1.49-4.88c0.83-0.88,1.84-1.32,3.03-1.32c1.32,0,2.4,0.53,3.24,1.6
			c0.84,1.07,1.26,2.55,1.26,4.43c0,1.53-0.18,2.73-0.56,3.6c-0.37,0.88-0.91,1.56-1.62,2.04c-0.71,0.48-1.49,0.73-2.32,0.73
			c-1.35,0-2.44-0.53-3.27-1.6C289.34,114.41,288.92,112.88,288.92,110.87z M290.61,110.88c0,1.52,0.27,2.66,0.81,3.42
			c0.54,0.76,1.21,1.13,2.02,1.13c0.81,0,1.48-0.38,2.01-1.14c0.54-0.76,0.8-1.92,0.8-3.48c0-1.47-0.27-2.58-0.81-3.34
			c-0.54-0.76-1.21-1.13-2-1.13c-0.82,0-1.49,0.38-2.02,1.13C290.88,108.22,290.61,109.36,290.61,110.88z"/>
		<path class="st0" d="M301.12,116.81v-11.87h1.5v1.81c0.37-0.85,0.71-1.4,1.03-1.67c0.31-0.27,0.66-0.4,1.04-0.4
			c0.54,0,1.1,0.22,1.66,0.65l-0.58,1.86c-0.39-0.28-0.78-0.43-1.17-0.43c-0.36,0-0.67,0.13-0.95,0.4c-0.28,0.26-0.48,0.63-0.59,1.1
			c-0.18,0.72-0.27,1.5-0.27,2.34v6.21H301.12z"/>
		<path class="st0" d="M315.28,116.81v-16.39h5.03c0.88,0,1.55,0.05,2.02,0.16c0.65,0.13,1.2,0.39,1.64,0.77
			c0.44,0.38,0.8,0.9,1.07,1.58c0.27,0.68,0.4,1.43,0.4,2.24c0,1.39-0.36,2.57-1.08,3.54c-0.72,0.97-2.02,1.45-3.9,1.45h-3.42v6.66
			H315.28z M317.05,108.21h3.45c1.14,0,1.95-0.26,2.43-0.78c0.48-0.52,0.72-1.25,0.72-2.2c0-0.68-0.14-1.27-0.42-1.76
			c-0.29-0.49-0.66-0.81-1.12-0.97c-0.3-0.09-0.85-0.14-1.65-0.14h-3.42V108.21z"/>
		<path class="st0" d="M328.73,116.81v-16.39h1.65v16.39H328.73z"/>
		<path class="st0" d="M340.56,115.31c-0.61,0.65-1.2,1.1-1.77,1.37c-0.57,0.27-1.18,0.4-1.83,0.4c-1.07,0-1.9-0.32-2.48-0.96
			c-0.58-0.64-0.86-1.45-0.86-2.45c0-0.58,0.11-1.11,0.33-1.6c0.22-0.48,0.5-0.87,0.85-1.16c0.35-0.29,0.76-0.51,1.2-0.66
			c0.33-0.1,0.82-0.21,1.48-0.3c1.34-0.19,2.33-0.43,2.96-0.69c0-0.27,0.01-0.45,0.01-0.52c0-0.82-0.16-1.39-0.47-1.72
			c-0.43-0.45-1.06-0.68-1.89-0.68c-0.79,0-1.36,0.17-1.73,0.5c-0.37,0.33-0.65,0.92-0.82,1.76l-1.65-0.27
			c0.14-0.84,0.38-1.52,0.72-2.04c0.34-0.52,0.83-0.92,1.46-1.2c0.64-0.28,1.38-0.42,2.21-0.42c0.83,0,1.51,0.12,2.03,0.36
			c0.52,0.24,0.9,0.54,1.15,0.9c0.24,0.36,0.42,0.82,0.51,1.37c0.06,0.34,0.09,0.96,0.09,1.86v2.68c0,1.87,0.03,3.05,0.1,3.55
			c0.07,0.49,0.2,0.97,0.4,1.42h-1.69C340.7,116.38,340.6,115.88,340.56,115.31z M340.45,110.84c-0.61,0.3-1.53,0.55-2.74,0.76
			c-0.69,0.12-1.18,0.25-1.47,0.4c-0.29,0.15-0.51,0.37-0.66,0.66c-0.15,0.29-0.23,0.61-0.23,0.96c0,0.54,0.16,0.99,0.5,1.35
			c0.34,0.36,0.83,0.54,1.49,0.54c0.65,0,1.22-0.17,1.72-0.51c0.5-0.34,0.87-0.8,1.11-1.4c0.18-0.46,0.27-1.13,0.27-2.02
			L340.45,110.84z"/>
		<path class="st0" d="M349.34,115l0.23,1.78c-0.46,0.12-0.87,0.18-1.23,0.18c-0.59,0-1.05-0.12-1.38-0.35
			c-0.33-0.23-0.55-0.53-0.69-0.91c-0.13-0.37-0.2-1.17-0.2-2.37v-6.82h-1.19v-1.57h1.19v-2.94l1.65-1.21v4.15h1.61v1.57h-1.61v6.93
			c0,0.57,0.03,0.94,0.09,1.11c0.05,0.16,0.14,0.29,0.27,0.39c0.13,0.1,0.31,0.14,0.55,0.14C348.81,115.08,349.05,115.05,349.34,115
			z"/>
		<path class="st0" d="M352.65,116.81v-10.29h-1.38v-1.57h1.38v-1.26c0-0.8,0.05-1.39,0.17-1.78c0.16-0.52,0.43-0.94,0.82-1.27
			c0.39-0.32,0.95-0.49,1.66-0.49c0.46,0,0.97,0.07,1.53,0.2l-0.24,1.75c-0.35-0.08-0.66-0.11-0.96-0.11
			c-0.49,0-0.85,0.13-1.05,0.39c-0.21,0.26-0.31,0.75-0.31,1.46v1.1h1.88v1.57h-1.84v10.29H352.65z"/>
		<path class="st0" d="M358.1,110.87c0-2.2,0.49-3.83,1.49-4.88c0.83-0.88,1.84-1.32,3.03-1.32c1.32,0,2.4,0.53,3.24,1.6
			c0.84,1.07,1.26,2.55,1.26,4.43c0,1.53-0.19,2.73-0.56,3.6c-0.37,0.88-0.91,1.56-1.62,2.04c-0.71,0.48-1.48,0.73-2.32,0.73
			c-1.35,0-2.44-0.53-3.27-1.6C358.52,114.41,358.1,112.88,358.1,110.87z M359.79,110.88c0,1.52,0.26,2.66,0.8,3.42
			c0.54,0.76,1.21,1.13,2.02,1.13c0.81,0,1.48-0.38,2.01-1.14c0.53-0.76,0.8-1.92,0.8-3.48c0-1.47-0.27-2.58-0.81-3.34
			c-0.54-0.76-1.21-1.13-2-1.13c-0.82,0-1.49,0.38-2.02,1.13C360.05,108.22,359.79,109.36,359.79,110.88z"/>
		<path class="st0" d="M370.3,116.81v-11.87h1.5v1.81c0.36-0.85,0.71-1.4,1.03-1.67c0.31-0.27,0.66-0.4,1.04-0.4
			c0.54,0,1.09,0.22,1.66,0.65l-0.59,1.86c-0.39-0.28-0.78-0.43-1.17-0.43c-0.36,0-0.67,0.13-0.95,0.4c-0.28,0.26-0.48,0.63-0.6,1.1
			c-0.18,0.72-0.27,1.5-0.27,2.34v6.21H370.3z"/>
		<path class="st0" d="M377.81,116.81v-11.87h1.5v1.66c0.3-0.58,0.7-1.05,1.2-1.4c0.5-0.35,1.07-0.53,1.71-0.53
			c0.71,0,1.29,0.18,1.75,0.55c0.46,0.37,0.78,0.88,0.96,1.53c0.76-1.39,1.76-2.08,2.99-2.08c0.96,0,1.7,0.33,2.21,0.98
			c0.51,0.65,0.77,1.66,0.77,3.01v8.15h-1.65v-7.48c0-0.8-0.05-1.38-0.15-1.74c-0.11-0.35-0.3-0.64-0.58-0.86
			c-0.28-0.22-0.6-0.32-0.98-0.32c-0.68,0-1.24,0.28-1.69,0.83c-0.45,0.56-0.67,1.44-0.67,2.67v6.89h-1.65v-7.71
			c0-0.89-0.13-1.56-0.39-2.01c-0.27-0.45-0.7-0.67-1.3-0.67c-0.46,0-0.88,0.15-1.27,0.45c-0.38,0.3-0.67,0.73-0.84,1.31
			c-0.18,0.57-0.26,1.4-0.26,2.48v6.16H377.81z"/>
		<path class="st0" d="M401.52,116.81v-16.39h1.77v16.39H401.52z"/>
		<path class="st0" d="M407.48,116.81v-11.87h1.5v1.69c0.71-1.31,1.72-1.96,3.06-1.96c0.58,0,1.11,0.13,1.59,0.39
			c0.48,0.26,0.84,0.59,1.09,1.01c0.24,0.42,0.41,0.91,0.5,1.49c0.06,0.37,0.09,1.02,0.09,1.96v7.3h-1.69v-7.22
			c0-0.82-0.06-1.43-0.19-1.84c-0.12-0.41-0.35-0.73-0.66-0.97c-0.32-0.24-0.7-0.36-1.12-0.36c-0.69,0-1.28,0.27-1.77,0.82
			c-0.49,0.54-0.74,1.58-0.74,3.1v6.48H407.48z"/>
		<path class="st0" d="M425.67,116.81v-16.39h4.99c1.02,0,1.83,0.17,2.45,0.5c0.61,0.33,1.09,0.84,1.44,1.53
			c0.35,0.69,0.53,1.41,0.53,2.16c0,0.7-0.16,1.36-0.47,1.98c-0.31,0.62-0.77,1.12-1.4,1.5c0.81,0.29,1.43,0.79,1.86,1.49
			c0.43,0.7,0.65,1.53,0.65,2.48c0,0.77-0.13,1.48-0.4,2.14c-0.26,0.66-0.59,1.17-0.97,1.53c-0.39,0.36-0.88,0.63-1.46,0.81
			c-0.58,0.18-1.3,0.27-2.15,0.27H425.67z M427.44,107.3h2.88c0.78,0,1.33-0.06,1.68-0.19c0.44-0.16,0.78-0.43,1.01-0.81
			c0.23-0.38,0.35-0.86,0.35-1.43c0-0.54-0.11-1.02-0.32-1.43c-0.22-0.41-0.51-0.7-0.91-0.85c-0.39-0.15-1.07-0.23-2.02-0.23h-2.66
			V107.3z M427.44,114.87h3.32c0.58,0,0.97-0.03,1.2-0.08c0.41-0.09,0.74-0.24,1.02-0.45c0.27-0.21,0.5-0.51,0.67-0.91
			c0.18-0.4,0.27-0.86,0.27-1.38c0-0.61-0.13-1.14-0.39-1.59c-0.26-0.45-0.62-0.77-1.07-0.95c-0.45-0.18-1.09-0.27-1.94-0.27h-3.07
			V114.87z"/>
		<path class="st0" d="M445.6,115.31c-0.61,0.65-1.2,1.1-1.77,1.37c-0.57,0.27-1.18,0.4-1.83,0.4c-1.07,0-1.9-0.32-2.48-0.96
			c-0.58-0.64-0.87-1.45-0.87-2.45c0-0.58,0.11-1.11,0.33-1.6c0.22-0.48,0.51-0.87,0.86-1.16c0.35-0.29,0.75-0.51,1.19-0.66
			c0.33-0.1,0.82-0.21,1.48-0.3c1.34-0.19,2.33-0.43,2.96-0.69c0.01-0.27,0.01-0.45,0.01-0.52c0-0.82-0.15-1.39-0.47-1.72
			c-0.42-0.45-1.05-0.68-1.89-0.68c-0.78,0-1.35,0.17-1.73,0.5c-0.37,0.33-0.64,0.92-0.83,1.76l-1.65-0.27
			c0.15-0.84,0.39-1.52,0.73-2.04c0.34-0.52,0.83-0.92,1.46-1.2c0.64-0.28,1.37-0.42,2.22-0.42c0.83,0,1.51,0.12,2.02,0.36
			c0.52,0.24,0.91,0.54,1.15,0.9c0.25,0.36,0.41,0.82,0.51,1.37c0.05,0.34,0.08,0.96,0.08,1.86v2.68c0,1.87,0.04,3.05,0.11,3.55
			c0.07,0.49,0.2,0.97,0.39,1.42h-1.69C445.74,116.38,445.64,115.88,445.6,115.31z M445.48,110.84c-0.6,0.3-1.53,0.55-2.74,0.76
			c-0.69,0.12-1.17,0.25-1.46,0.4c-0.28,0.15-0.5,0.37-0.66,0.66c-0.16,0.29-0.23,0.61-0.23,0.96c0,0.54,0.17,0.99,0.51,1.35
			c0.34,0.36,0.83,0.54,1.49,0.54c0.64,0,1.22-0.17,1.72-0.51s0.87-0.8,1.11-1.4c0.18-0.46,0.27-1.13,0.27-2.02L445.48,110.84z"/>
		<path class="st0" d="M450.85,116.81v-11.87h1.5v1.69c0.7-1.31,1.72-1.96,3.06-1.96c0.58,0,1.1,0.13,1.59,0.39
			c0.48,0.26,0.84,0.59,1.08,1.01c0.24,0.42,0.41,0.91,0.51,1.49c0.06,0.37,0.09,1.02,0.09,1.96v7.3h-1.69v-7.22
			c0-0.82-0.06-1.43-0.19-1.84c-0.12-0.41-0.35-0.73-0.67-0.97c-0.32-0.24-0.69-0.36-1.12-0.36c-0.69,0-1.28,0.27-1.77,0.82
			c-0.5,0.54-0.74,1.58-0.74,3.1v6.48H450.85z"/>
		<path class="st0" d="M462.16,117.79l1.65,0.27c0.07,0.61,0.24,1.05,0.54,1.33c0.4,0.38,0.95,0.56,1.64,0.56
			c0.74,0,1.32-0.19,1.72-0.56c0.4-0.37,0.68-0.89,0.82-1.56c0.08-0.41,0.12-1.27,0.11-2.58c-0.71,1.03-1.6,1.55-2.67,1.55
			c-1.32,0-2.35-0.59-3.07-1.77c-0.72-1.18-1.09-2.59-1.09-4.24c0-1.13,0.17-2.18,0.5-3.14c0.33-0.96,0.82-1.7,1.45-2.22
			c0.63-0.52,1.38-0.78,2.23-0.78c1.14,0,2.08,0.57,2.81,1.72v-1.45h1.5v10.26c0,1.85-0.15,3.16-0.46,3.93
			c-0.31,0.77-0.79,1.38-1.45,1.83c-0.66,0.45-1.47,0.67-2.44,0.67c-1.14,0-2.07-0.32-2.77-0.96
			C462.47,120.03,462.13,119.07,462.16,117.79z M463.5,110.66c0,1.56,0.25,2.69,0.75,3.4c0.5,0.72,1.13,1.07,1.89,1.07
			c0.75,0,1.38-0.35,1.89-1.07c0.51-0.71,0.76-1.83,0.76-3.34c0-1.45-0.26-2.54-0.78-3.28c-0.53-0.74-1.16-1.11-1.9-1.11
			c-0.72,0-1.34,0.36-1.85,1.09C463.75,108.15,463.5,109.23,463.5,110.66z"/>
		<path class="st0" d="M474.05,116.81v-16.39h1.65v16.39H474.05z"/>
		<path class="st0" d="M485.88,115.31c-0.61,0.65-1.2,1.1-1.77,1.37c-0.57,0.27-1.18,0.4-1.83,0.4c-1.07,0-1.9-0.32-2.48-0.96
			c-0.58-0.64-0.86-1.45-0.86-2.45c0-0.58,0.11-1.11,0.33-1.6c0.22-0.48,0.51-0.87,0.86-1.16c0.35-0.29,0.75-0.51,1.19-0.66
			c0.33-0.1,0.82-0.21,1.48-0.3c1.34-0.19,2.33-0.43,2.96-0.69c0-0.27,0.01-0.45,0.01-0.52c0-0.82-0.16-1.39-0.47-1.72
			c-0.42-0.45-1.06-0.68-1.89-0.68c-0.78,0-1.36,0.17-1.73,0.5c-0.37,0.33-0.65,0.92-0.83,1.76l-1.65-0.27
			c0.14-0.84,0.39-1.52,0.72-2.04c0.34-0.52,0.82-0.92,1.46-1.2c0.63-0.28,1.37-0.42,2.21-0.42c0.83,0,1.51,0.12,2.03,0.36
			c0.52,0.24,0.9,0.54,1.15,0.9c0.24,0.36,0.41,0.82,0.51,1.37c0.06,0.34,0.09,0.96,0.09,1.86v2.68c0,1.87,0.03,3.05,0.1,3.55
			c0.07,0.49,0.2,0.97,0.4,1.42h-1.69C486.02,116.38,485.92,115.88,485.88,115.31z M485.76,110.84c-0.61,0.3-1.53,0.55-2.74,0.76
			c-0.69,0.12-1.18,0.25-1.47,0.4c-0.28,0.15-0.5,0.37-0.66,0.66c-0.15,0.29-0.23,0.61-0.23,0.96c0,0.54,0.17,0.99,0.51,1.35
			c0.34,0.36,0.83,0.54,1.49,0.54c0.64,0,1.22-0.17,1.72-0.51c0.51-0.34,0.87-0.8,1.11-1.4c0.18-0.46,0.27-1.13,0.27-2.02
			L485.76,110.84z"/>
		<path class="st0" d="M497.42,116.81v-1.49c-0.61,1.17-1.53,1.76-2.72,1.76c-0.78,0-1.49-0.26-2.14-0.78
			c-0.65-0.52-1.16-1.25-1.51-2.18c-0.36-0.94-0.54-2.01-0.54-3.23c0-1.18,0.16-2.26,0.48-3.22c0.33-0.96,0.81-1.7,1.45-2.22
			c0.64-0.51,1.36-0.77,2.16-0.77c0.59,0,1.1,0.15,1.55,0.45c0.46,0.3,0.83,0.7,1.11,1.18v-5.89h1.65v16.39H497.42z M492.2,110.89
			c0,1.52,0.26,2.66,0.79,3.41c0.53,0.75,1.15,1.13,1.87,1.13c0.72,0,1.33-0.36,1.84-1.08c0.51-0.72,0.76-1.82,0.76-3.29
			c0-1.62-0.26-2.82-0.77-3.58c-0.51-0.76-1.15-1.14-1.9-1.14c-0.73,0-1.35,0.37-1.84,1.1C492.45,108.17,492.2,109.32,492.2,110.89z
			"/>
		<path class="st0" d="M509.4,112.97l1.66,0.27c-0.27,1.21-0.76,2.16-1.49,2.83c-0.72,0.67-1.64,1.01-2.76,1.01
			c-1.41,0-2.53-0.53-3.36-1.6c-0.83-1.07-1.25-2.57-1.25-4.5c0-2,0.42-3.55,1.26-4.65c0.83-1.1,1.92-1.66,3.26-1.66
			c1.29,0,2.35,0.54,3.16,1.62c0.82,1.08,1.23,2.6,1.23,4.55c0,0.12,0,0.3-0.01,0.54h-7.2c0.07,1.31,0.36,2.31,0.91,3.01
			c0.54,0.7,1.22,1.04,2.03,1.04c0.6,0,1.12-0.19,1.54-0.59C508.81,114.45,509.15,113.83,509.4,112.97z M503.93,109.73h5.49
			c-0.07-1-0.28-1.75-0.62-2.25c-0.54-0.78-1.22-1.16-2.07-1.16c-0.76,0-1.41,0.31-1.93,0.93
			C504.28,107.87,503.99,108.69,503.93,109.73z"/>
		<path class="st0" d="M513.75,113.27l1.61-0.32c0.09,0.8,0.34,1.42,0.74,1.84c0.41,0.43,0.98,0.64,1.72,0.64
			c0.74,0,1.29-0.19,1.65-0.57c0.36-0.38,0.54-0.82,0.54-1.33c0-0.46-0.16-0.82-0.47-1.08c-0.22-0.18-0.77-0.41-1.65-0.68
			c-1.18-0.37-2-0.69-2.47-0.97c-0.46-0.27-0.82-0.65-1.05-1.13c-0.24-0.48-0.36-1.01-0.36-1.59c0-0.53,0.1-1.02,0.29-1.47
			c0.2-0.45,0.46-0.83,0.8-1.12c0.26-0.23,0.6-0.43,1.04-0.59c0.44-0.16,0.9-0.24,1.4-0.24c0.76,0,1.42,0.14,1.99,0.4
			c0.57,0.27,0.99,0.63,1.26,1.09c0.27,0.46,0.46,1.07,0.56,1.84l-1.61,0.27c-0.07-0.62-0.28-1.1-0.62-1.45
			c-0.35-0.35-0.83-0.52-1.46-0.52c-0.74,0-1.27,0.15-1.59,0.46c-0.32,0.31-0.47,0.67-0.47,1.08c0,0.26,0.06,0.5,0.2,0.71
			c0.13,0.22,0.34,0.4,0.62,0.54c0.16,0.08,0.64,0.25,1.42,0.52c1.14,0.38,1.94,0.69,2.4,0.93c0.46,0.24,0.82,0.59,1.07,1.05
			c0.26,0.46,0.39,1.03,0.39,1.72c0,0.67-0.16,1.3-0.47,1.89c-0.32,0.59-0.77,1.05-1.36,1.37c-0.59,0.32-1.27,0.49-2.01,0.49
			c-1.25,0-2.2-0.32-2.84-0.96C514.34,115.48,513.93,114.53,513.75,113.27z"/>
		<path class="st0" d="M524.94,116.81v-16.39h1.65v5.89c0.76-1.1,1.72-1.64,2.87-1.64c0.71,0,1.32,0.17,1.85,0.52
			c0.52,0.35,0.89,0.83,1.12,1.44c0.22,0.61,0.34,1.5,0.34,2.66v7.52h-1.65v-7.51c0-1-0.17-1.74-0.53-2.19
			c-0.35-0.46-0.84-0.69-1.48-0.69c-0.48,0-0.93,0.16-1.35,0.46c-0.42,0.31-0.72,0.73-0.9,1.26c-0.18,0.53-0.27,1.26-0.27,2.19v6.49
			H524.94z"/>
	</g>
</g>
</svg>
